<?xml version="1.0" encoding="utf-8"?>
<!-- Generator: Adobe Illustrator 16.0.0, SVG Export Plug-In . SVG Version: 6.00 Build 0)  -->
<!DOCTYPE svg PUBLIC "-//W3C//DTD SVG 1.1//EN" "http://www.w3.org/Graphics/SVG/1.1/DTD/svg11.dtd">
<svg version="1.1" id="图层_1" xmlns="http://www.w3.org/2000/svg" xmlns:xlink="http://www.w3.org/1999/xlink" x="0px" y="0px"
	 width="90.521px" height="24.055px" viewBox="26.375 26.945 90.521 24.055" enable-background="new 26.375 26.945 90.521 24.055"
	 xml:space="preserve">
<g id="XMLID_2_">
	<g id="XMLID_3_">
		<path id="XMLID_34_" fill="#FFFFFF" d="M108.16,33.41h-7.721c-8.009,0-8.734,6.559-8.734,8.59s0.726,8.561,8.734,8.561h7.721
			c8.038,0,8.734-6.559,8.734-8.561C116.924,39.969,116.198,33.41,108.16,33.41z M108.16,46.643h-7.721
			c-4.353,0-4.729-3.568-4.729-4.643c0-1.074,0.377-4.644,4.729-4.644h7.721c4.353,0,4.73,3.57,4.73,4.644
			C112.891,43.074,112.513,46.643,108.16,46.643z"/>
		<path id="XMLID_7_" fill="#FFFFFF" d="M90.167,33.816h-2.524c-1.074,0-1.307,0.174-1.713,0.783S78.355,46.15,78.355,46.15
			c-0.232,0.348-0.465,0.464-0.783,0.464c-0.291,0-0.552-0.146-0.783-0.464c0,0-7.169-10.941-7.575-11.551s-0.638-0.783-1.712-0.783
			h-2.496c-0.58,0-0.841,0.464-0.464,0.986c0.377,0.522,8.561,12.973,8.561,12.973c1.335,1.943,2.293,2.728,4.47,2.728
			c2.176,0,3.163-0.784,4.469-2.728c0,0,8.184-12.45,8.561-12.973C91.008,34.28,90.747,33.816,90.167,33.816z"/>
		<path id="XMLID_33_" fill="#FFFFFF" d="M56.909,34.89c0-0.755,0.291-1.074,1.074-1.074h1.887c0.754,0,1.074,0.29,1.074,1.074
			v14.597c0,0.755-0.291,1.073-1.074,1.073h-1.887c-0.754,0-1.074-0.289-1.074-1.073V34.89z"/>
		<path id="XMLID_32_" fill="#FFFFFF" d="M56.735,30.421c-0.609-0.609-0.609-1.103,0-1.712l1.306-1.306
			c0.609-0.61,1.103-0.61,1.712,0l1.306,1.306c0.609,0.609,0.609,1.103,0,1.712l-1.306,1.306c-0.609,0.609-1.103,0.609-1.712,0
			L56.735,30.421z"/>
		<path id="XMLID_4_" fill="#FFFFFF" d="M52.789,33.816h-2.496c-1.074,0-1.306,0.174-1.712,0.783S41.006,46.15,41.006,46.15
			c-0.232,0.348-0.464,0.464-0.783,0.464c-0.319,0-0.552-0.146-0.784-0.464c0,0-7.168-10.941-7.574-11.551s-0.639-0.783-1.712-0.783
			h-2.496c-0.639,0-0.842,0.464-0.464,0.986c0.348,0.552,8.561,12.973,8.561,12.973c1.335,1.943,2.292,2.728,4.469,2.728
			c2.176,0,3.163-0.784,4.469-2.728c0,0,8.184-12.45,8.562-12.973C53.63,34.28,53.427,33.816,52.789,33.816z"/>
	</g>
</g>
</svg>
